<svg version="1.1" xmlns="http://www.w3.org/2000/svg" xmlns:xlink="http://www.w3.org/1999/xlink" width="131.96623" height="134.33333" viewBox="0,0,131.96623,134.33333"><g transform="translate(-114.01689,-112.83333)"><g data-paper-data="{&quot;isPaintingLayer&quot;:true}" fill-rule="nonzero" stroke-width="0" stroke-linecap="butt" stroke-linejoin="miter" stroke-miterlimit="10" stroke-dasharray="" stroke-dashoffset="0" style="mix-blend-mode: normal"><path d="M114.01689,247.16667v-134.33333h131.96623v134.33333z" fill="#000000" stroke="none"/><path d="M168.03551,147.09204v-5.99347h5.99347v5.99347z" fill="#ffffff" stroke="#ffffff"/><path d="M162.04204,153.06306v-5.99347h5.99347v5.99347z" fill="#ffffff" stroke="#ffffff"/><path d="M156.04857,159.05653v-5.99347h5.99347v5.99347z" fill="#ffffff" stroke="#ffffff"/><path d="M156.07102,188.97898v5.99347v5.99347h-5.99347h-5.99347h-5.99347v-5.99347v-5.99347v-5.97102v-5.99347v-5.99347v-5.99347v-5.99347h5.99347h5.99347h5.97102v5.99347v5.99347v5.97102v5.99347v5.99347zM150.07755,165.02755h-5.99347v5.99347v5.97102v5.99347v5.99347v5.99347h5.99347v-5.99347v-5.97102v-5.99347v-5.99347z" fill="#ffffff" stroke="#ffffff"/><path d="M191.96449,171.02102v-5.99347h5.99347v5.99347z" fill="#ffffff" stroke="#ffffff"/><path d="M215.91592,171.02102v-5.99347h5.99347v5.99347z" fill="#ffffff" stroke="#ffffff"/><path d="M197.95796,177.01449v-5.99347h5.99347v5.99347z" fill="#ffffff" stroke="#ffffff"/><path d="M209.92245,177.01449v-5.99347h5.99347v5.99347z" fill="#ffffff" stroke="#ffffff"/><path d="M156.04857,206.93694v-5.99347h5.99347v5.99347z" fill="#ffffff" stroke="#ffffff"/><path d="M203.95143,183.00796v-5.99347h5.99347v5.99347z" fill="#ffffff" stroke="#ffffff"/><path d="M162.04204,212.93041v-5.99347h5.99347v5.99347z" fill="#ffffff" stroke="#ffffff"/><path d="M197.95796,188.97898v-5.99347h5.99347v5.99347z" fill="#ffffff" stroke="#ffffff"/><path d="M209.92245,188.97898v-5.99347h5.99347v5.99347z" fill="#ffffff" stroke="#ffffff"/><path d="M168.03551,218.92387v-5.99347h5.99347v5.99347z" fill="#ffffff" stroke="#ffffff"/><path d="M191.96449,194.97245v-5.99347h5.99347v5.99347z" fill="#ffffff" stroke="#ffffff"/><path d="M215.91592,194.97245v-5.99347h5.99347v5.99347z" fill="#ffffff" stroke="#ffffff"/><path d="M180,135.10511h5.99347v5.99347v5.97102v5.99347v5.99347v5.97102v5.99347v5.99347v5.97102v5.99347v5.99347v5.97102v5.99347v5.99347v5.97102v5.99347h-5.99347h-5.99347v-5.99347h5.99347v-5.97102v-5.99347v-5.99347v-5.97102v-5.99347v-5.99347v-5.97102v-5.99347v-5.99347v-5.97102v-5.99347v-5.99347v-5.97102h-5.99347v-5.99347z" fill="#ffffff" stroke="#ffffff"/></g></g></svg>